<?xml version="1.0" encoding="UTF-8" standalone="no"?>
<svg width="736px" height="547px" viewBox="0 0 736 547" version="1.1" xmlns="http://www.w3.org/2000/svg" xmlns:xlink="http://www.w3.org/1999/xlink" xmlns:sketch="http://www.bohemiancoding.com/sketch/ns">
    <!-- Generator: Sketch 3.1 (8751) - http://www.bohemiancoding.com/sketch -->
    <title>Slice 2</title>
    <desc>Created with Sketch.</desc>
    <defs></defs>
    <g id="Page-1" stroke="none" stroke-width="1" fill="none" fill-rule="evenodd" sketch:type="MSPage">
        <g id="Slice-2" sketch:type="MSLayerGroup"></g>
        <g id="05" sketch:type="MSLayerGroup" transform="translate(10.000000, 11.000000)">
            <path d="M379.799236,423.388277 C379.799236,407.565897 392.386242,394.721847 407.891975,394.721847" id="Shape" stroke="#404040" stroke-width="4" sketch:type="MSShapeGroup"></path>
            <path d="M224.46828,423.388277 C224.46828,407.565897 211.881274,394.721847 196.375541,394.721847 M142.743949,509.201421 L337.842548,509.201421" id="Shape" stroke="#404040" stroke-width="4" sketch:type="MSShapeGroup"></path>
            <ellipse id="Oval" stroke="#404040" stroke-width="4" fill="#4ED1A1" sketch:type="MSShapeGroup" cx="280.744968" cy="508.922202" rx="14.4112102" ry="14.7055062"></ellipse>
            <ellipse id="Oval" stroke="#404040" stroke-width="4" fill="#4ED1A1" sketch:type="MSShapeGroup" cx="323.613758" cy="508.922202" rx="14.4112102" ry="14.7055062"></ellipse>
            <ellipse id="Oval" stroke="#404040" stroke-width="4" fill="#4ED1A1" sketch:type="MSShapeGroup" cx="214.161529" cy="508.922202" rx="14.4112102" ry="14.7055062"></ellipse>
            <path d="M700.676688,394.721847 L156.790318,394.721847" id="Shape" stroke="#404040" stroke-width="4" sketch:type="MSShapeGroup"></path>
            <ellipse id="Oval" stroke="#404040" stroke-width="4" fill="#B18BE8" sketch:type="MSShapeGroup" cx="434.890191" cy="394.442629" rx="14.4112102" ry="14.7055062"></ellipse>
            <ellipse id="Oval" stroke="#404040" stroke-width="4" fill="#B18BE8" sketch:type="MSShapeGroup" cx="280.744968" cy="394.442629" rx="14.4112102" ry="14.7055062"></ellipse>
            <ellipse id="Oval" stroke="#404040" stroke-width="4" fill="#B18BE8" sketch:type="MSShapeGroup" cx="700.311847" cy="394.442629" rx="14.4112102" ry="14.7055062"></ellipse>
            <path d="M224.46828,423.388277 C224.46828,439.210657 237.055287,452.054707 252.561019,452.054707 L350.976815,452.054707 M70.1406369,251.296625 C70.1406369,267.119005 82.7276433,279.963055 98.2333758,279.963055 L114.012739,279.963055" id="Shape" stroke="#404040" stroke-width="4" sketch:type="MSShapeGroup"></path>
            <ellipse id="Oval" stroke="#404040" stroke-width="4" fill="#4ED1A1" sketch:type="MSShapeGroup" cx="280.744968" cy="452.14778" rx="14.4112102" ry="14.7055062"></ellipse>
            <ellipse id="Oval" stroke="#404040" stroke-width="4" fill="#4ED1A1" sketch:type="MSShapeGroup" cx="323.613758" cy="452.14778" rx="14.4112102" ry="14.7055062"></ellipse>
            <path d="M350.976815,451.961634 L351.797707,451.961634 C367.303439,451.961634 379.890446,439.117584 379.890446,423.295204" id="Shape" stroke="#404040" stroke-width="4" sketch:type="MSShapeGroup"></path>
            <path d="M44.875414,280.242274 L12.3133758,280.242274" id="Shape" stroke="#CCCCCC" stroke-width="4" stroke-dasharray="0,14.3051" sketch:type="MSShapeGroup"></path>
            <path d="M687.816051,280.242274 L216.076943,280.242274" id="Shape" stroke="#CCCCCC" stroke-width="4" stroke-dasharray="0,14.1689" sketch:type="MSShapeGroup"></path>
            <path d="M477.48535,337.48206 L12.1309554,337.48206" id="Shape" stroke="#CCCCCC" stroke-width="4" stroke-dasharray="0,13.9788" sketch:type="MSShapeGroup"></path>
            <path d="M687.26879,337.48206 L640.021911,337.48206" id="Shape" stroke="#CCCCCC" stroke-width="4" stroke-dasharray="0,14.7877" sketch:type="MSShapeGroup"></path>
            <path d="M687.086369,223.002487 L612.020382,223.002487" id="Shape" stroke="#CCCCCC" stroke-width="4" stroke-dasharray="0,14.9632" sketch:type="MSShapeGroup"></path>
            <path d="M70.1406369,251.668917 C70.1406369,235.846536 57.5536306,223.002487 42.0478981,223.002487 M185.795159,251.296625 C185.795159,267.119005 173.208153,279.963055 157.70242,279.963055 L113.921529,279.963055 M185.795159,251.668917 C185.795159,235.846536 198.382166,223.002487 213.887898,223.002487 M241.889427,394.721847 C226.383694,394.721847 213.796688,381.877798 213.796688,366.055417 L213.796688,308.536412 M213.796688,308.536412 C213.796688,292.714032 201.209682,279.869982 185.703949,279.869982" id="Shape" stroke="#404040" stroke-width="4" sketch:type="MSShapeGroup"></path>
            <ellipse id="Oval" stroke="#404040" stroke-width="4" fill="#4ED1A1" sketch:type="MSShapeGroup" cx="128.423949" cy="508.922202" rx="14.4112102" ry="14.7055062"></ellipse>
            <path d="M581.008917,223.002487 L28.4575796,223.002487" id="Shape" stroke="#404040" stroke-width="4" sketch:type="MSShapeGroup"></path>
            <ellipse id="Oval" stroke="#404040" stroke-width="4" fill="#B3E3FF" sketch:type="MSShapeGroup" cx="14.4112102" cy="223.188632" rx="14.4112102" ry="14.7055062"></ellipse>
            <ellipse id="Oval" stroke="#404040" stroke-width="4" fill="#B3E3FF" sketch:type="MSShapeGroup" cx="280.744968" cy="223.188632" rx="14.4112102" ry="14.7055062"></ellipse>
            <ellipse id="Oval" stroke="#404040" stroke-width="4" fill="#B3E3FF" sketch:type="MSShapeGroup" cx="580.826497" cy="223.188632" rx="14.4112102" ry="14.7055062"></ellipse>
            <path d="M37.3961783,124.810657 L76.1605096,124.810657 L76.1605096,159.712966 L37.3961783,159.712966 L37.3961783,124.810657 Z" id="Shape" stroke="#404040" stroke-width="4" fill="#B3E3FF" sketch:type="MSShapeGroup"></path>
            <path d="M49.8007643,146.496625 L48.706242,146.496625 L46.4259873,140.633037 L47.7029299,140.633037 L49.3447134,145.100533 L50.9864968,140.633037 L52.1722293,140.633037 L49.8007643,146.496625 L49.8007643,146.496625 Z M54.0876433,139.702309 C54.5436943,138.957726 55.364586,138.39929 56.4591083,138.39929 C57.5536306,138.39929 58.2833121,138.864654 58.8305732,139.702309 C59.3778344,140.446892 59.5602548,141.470693 59.5602548,142.587567 C59.5602548,143.70444 59.3778344,144.635169 58.8305732,145.472824 C58.3745223,146.217407 57.5536306,146.775844 56.4591083,146.775844 C55.364586,146.775844 54.6349045,146.31048 54.0876433,145.472824 C53.5403822,144.728242 53.3579618,143.70444 53.3579618,142.587567 C53.3579618,141.470693 53.5403822,140.446892 54.0876433,139.702309 L54.0876433,139.702309 Z M55.1821656,145.100533 C55.4557962,145.379751 55.8206369,145.565897 56.3678981,145.565897 C56.9151592,145.565897 57.28,145.379751 57.5536306,145.100533 C58.0096815,144.635169 58.1921019,143.797513 58.1921019,142.587567 C58.1921019,141.37762 58.0096815,140.539964 57.5536306,140.0746 C57.28,139.795382 56.9151592,139.609236 56.3678981,139.609236 C55.8206369,139.609236 55.4557962,139.795382 55.1821656,140.0746 C54.7261146,140.539964 54.5436943,141.37762 54.5436943,142.587567 C54.5436943,143.797513 54.7261146,144.542096 55.1821656,145.100533 L55.1821656,145.100533 Z M61.8405096,144.821314 C62.2965605,144.821314 62.6614013,145.193606 62.6614013,145.65897 C62.6614013,146.124334 62.2965605,146.496625 61.8405096,146.496625 C61.3844586,146.496625 61.0196178,146.124334 61.0196178,145.65897 C61.0196178,145.193606 61.3844586,144.821314 61.8405096,144.821314 L61.8405096,144.821314 Z M65.397707,146.496625 L65.397707,141.005329 L63.5735032,141.005329 L63.5735032,140.167673 C64.6680255,140.167673 65.397707,139.516163 65.5801274,138.678508 L66.5834395,138.678508 L66.5834395,146.496625 L65.397707,146.496625 L65.397707,146.496625 Z" id="Shape" fill="#404040" sketch:type="MSShapeGroup"></path>
            <path d="M56.823949,191.450799 L56.823949,175.069982 M64.3031847,185.401066 L56.823949,193.033037 L49.4359236,185.401066" id="Shape" stroke="#404040" stroke-width="4" sketch:type="MSShapeGroup"></path>
            <path d="M261.408408,124.810657 L300.172739,124.810657 L300.172739,159.712966 L261.408408,159.712966 L261.408408,124.810657 Z" id="Shape" stroke="#404040" stroke-width="4" fill="#B3E3FF" sketch:type="MSShapeGroup"></path>
            <path d="M272.26242,146.496625 L271.167898,146.496625 L268.887643,140.633037 L270.164586,140.633037 L271.806369,145.100533 L273.448153,140.633037 L274.633885,140.633037 L272.26242,146.496625 L272.26242,146.496625 Z M276.549299,139.702309 C277.00535,138.957726 277.826242,138.39929 278.920764,138.39929 C280.015287,138.39929 280.744968,138.864654 281.292229,139.702309 C281.83949,140.446892 282.021911,141.470693 282.021911,142.587567 C282.021911,143.70444 281.83949,144.635169 281.292229,145.472824 C280.836178,146.217407 280.015287,146.775844 278.920764,146.775844 C277.826242,146.775844 277.096561,146.31048 276.549299,145.472824 C276.002038,144.728242 275.819618,143.70444 275.819618,142.587567 C275.819618,141.470693 276.002038,140.446892 276.549299,139.702309 L276.549299,139.702309 Z M277.643822,145.100533 C277.917452,145.379751 278.282293,145.565897 278.829554,145.565897 C279.376815,145.565897 279.741656,145.379751 280.015287,145.100533 C280.471338,144.635169 280.653758,143.797513 280.653758,142.587567 C280.653758,141.37762 280.471338,140.539964 280.015287,140.0746 C279.741656,139.795382 279.376815,139.609236 278.829554,139.609236 C278.282293,139.609236 277.917452,139.795382 277.643822,140.0746 C277.187771,140.539964 277.00535,141.37762 277.00535,142.587567 C277.00535,143.797513 277.187771,144.542096 277.643822,145.100533 L277.643822,145.100533 Z M284.302166,144.821314 C284.758217,144.821314 285.123057,145.193606 285.123057,145.65897 C285.123057,146.124334 284.758217,146.496625 284.302166,146.496625 C283.846115,146.496625 283.481274,146.124334 283.481274,145.65897 C283.481274,145.193606 283.846115,144.821314 284.302166,144.821314 L284.302166,144.821314 Z M287.038471,141.284547 L287.038471,141.005329 C287.038471,139.702309 288.041783,138.492362 289.683567,138.492362 C291.32535,138.492362 292.237452,139.609236 292.237452,140.912256 C292.237452,141.936057 291.690191,142.773712 290.778089,143.332149 L289.227516,144.35595 C288.771465,144.635169 288.406624,145.00746 288.315414,145.472824 L292.237452,145.472824 L292.237452,146.589698 L286.856051,146.589698 C286.856051,145.286679 287.403312,144.35595 288.680255,143.425222 L289.957197,142.587567 C290.686879,142.122202 291.05172,141.563766 291.05172,140.912256 C291.05172,140.167673 290.595669,139.516163 289.592357,139.516163 C288.589045,139.516163 288.132994,140.260746 288.132994,141.098401 L288.132994,141.470693 L287.038471,141.284547 L287.038471,141.284547 Z" id="Shape" fill="#404040" sketch:type="MSShapeGroup"></path>
            <path d="M280.744968,191.450799 L280.744968,175.069982 M288.224204,185.401066 L280.744968,193.033037 L273.356943,185.401066" id="Shape" stroke="#404040" stroke-width="4" sketch:type="MSShapeGroup"></path>
            <path d="M561.672357,124.810657 L600.436688,124.810657 L600.436688,159.712966 L561.672357,159.712966 L561.672357,124.810657 Z" id="Shape" stroke="#404040" stroke-width="4" fill="#B3E3FF" sketch:type="MSShapeGroup"></path>
            <path d="M573.529682,146.496625 L572.435159,146.496625 L570.154904,140.633037 L571.431847,140.633037 L573.073631,145.100533 L574.715414,140.633037 L575.901146,140.633037 L573.529682,146.496625 L573.529682,146.496625 Z M578.637452,146.496625 L578.637452,141.005329 L576.813248,141.005329 L576.813248,140.167673 C577.907771,140.167673 578.637452,139.516163 578.819873,138.678508 L579.823185,138.678508 L579.823185,146.496625 L578.637452,146.496625 L578.637452,146.496625 Z M582.833121,144.821314 C583.289172,144.821314 583.654013,145.193606 583.654013,145.65897 C583.654013,146.124334 583.289172,146.496625 582.833121,146.496625 C582.37707,146.496625 582.012229,146.124334 582.012229,145.65897 C582.012229,145.193606 582.37707,144.821314 582.833121,144.821314 L582.833121,144.821314 Z M586.116688,139.702309 C586.572739,138.957726 587.393631,138.39929 588.488153,138.39929 C589.582675,138.39929 590.312357,138.864654 590.859618,139.702309 C591.406879,140.446892 591.589299,141.470693 591.589299,142.587567 C591.589299,143.70444 591.406879,144.635169 590.859618,145.472824 C590.403567,146.217407 589.582675,146.775844 588.488153,146.775844 C587.393631,146.775844 586.663949,146.31048 586.116688,145.472824 C585.569427,144.728242 585.387006,143.70444 585.387006,142.587567 C585.387006,141.470693 585.660637,140.446892 586.116688,139.702309 L586.116688,139.702309 Z M587.30242,145.100533 C587.576051,145.379751 587.940892,145.565897 588.488153,145.565897 C589.035414,145.565897 589.400255,145.379751 589.673885,145.100533 C590.129936,144.635169 590.312357,143.797513 590.312357,142.587567 C590.312357,141.37762 590.129936,140.539964 589.673885,140.0746 C589.400255,139.795382 589.035414,139.609236 588.488153,139.609236 C587.940892,139.609236 587.576051,139.795382 587.30242,140.0746 C586.846369,140.539964 586.663949,141.37762 586.663949,142.587567 C586.663949,143.797513 586.846369,144.542096 587.30242,145.100533 L587.30242,145.100533 Z" id="Shape" fill="#404040" sketch:type="MSShapeGroup"></path>
            <path d="M581.008917,191.450799 L581.008917,175.069982 M588.488153,185.401066 L581.008917,193.033037 L573.620892,185.401066" id="Shape" stroke="#404040" stroke-width="4" sketch:type="MSShapeGroup"></path>
            <path d="M51.533758,394.721847 L11.4924841,394.721847" id="Shape" stroke="#CCCCCC" stroke-width="4" stroke-dasharray="0,12.543" sketch:type="MSShapeGroup"></path>
            <path d="M217.901146,451.961634 L12.0397452,451.961634" id="Shape" stroke="#CCCCCC" stroke-width="4" stroke-dasharray="0,13.6844" sketch:type="MSShapeGroup"></path>
            <path d="M688.180892,451.961634 L380.437707,451.961634" id="Shape" stroke="#CCCCCC" stroke-width="4" stroke-dasharray="0,13.7717" sketch:type="MSShapeGroup"></path>
            <path d="M92.9431847,509.201421 L11.948535,509.201421" id="Shape" stroke="#CCCCCC" stroke-width="4" stroke-dasharray="0,13.6492" sketch:type="MSShapeGroup"></path>
            <path d="M687.998471,509.201421 L351.888917,509.201421" id="Shape" stroke="#CCCCCC" stroke-width="4" stroke-dasharray="0,13.907" sketch:type="MSShapeGroup"></path>
            <path d="M251.284076,0.186145648 L339.02828,0.186145648 L339.02828,46.7225577 L251.284076,46.7225577 L251.284076,0.186145648 Z" id="Shape" stroke="#404040" stroke-width="4" fill="#4CD3D6" sketch:type="MSShapeGroup"></path>
            <path d="M274.360255,24.9435169 L272.900892,24.9435169 L272.900892,28.9456483 L271.532739,28.9456483 L271.532739,19.1730018 L275.181146,19.1730018 C277.00535,19.1730018 278.191083,20.4760213 278.191083,22.1513321 C278.191083,23.5474245 277.278981,24.6642984 275.819618,24.9435169 L278.099873,29.131794 L276.549299,29.131794 L274.360255,24.9435169 L274.360255,24.9435169 Z M274.998726,23.7335702 C276.093248,23.7335702 276.82293,23.0820604 276.82293,22.0582593 C276.82293,21.0344583 276.093248,20.3829485 274.998726,20.3829485 L272.992102,20.3829485 L272.992102,23.7335702 L274.998726,23.7335702 L274.998726,23.7335702 Z M286.035159,27.0841918 C285.670318,28.2941385 284.575796,29.2248668 283.116433,29.2248668 C281.383439,29.2248668 279.832866,27.9218472 279.832866,25.5950266 C279.832866,23.4543517 281.292229,22.0582593 283.025223,22.0582593 C285.031847,22.0582593 286.21758,23.4543517 286.21758,25.5950266 L286.21758,26.0603908 L281.292229,26.0603908 C281.292229,27.2703375 282.204331,28.1079929 283.298854,28.1079929 C284.393376,28.1079929 284.940637,27.549556 285.123057,26.7119005 L286.035159,27.0841918 L286.035159,27.0841918 Z M284.758217,24.9435169 C284.758217,24.0127886 284.119745,23.268206 282.934013,23.268206 C281.83949,23.268206 281.201019,24.1058615 281.109809,24.9435169 L284.758217,24.9435169 L284.758217,24.9435169 Z M288.406624,29.0387211 L288.406624,18.8937833 L289.683567,18.8937833 L289.683567,29.0387211 L288.406624,29.0387211 L288.406624,29.0387211 Z M298.348535,27.0841918 C297.983694,28.2941385 296.889172,29.2248668 295.429809,29.2248668 C293.696815,29.2248668 292.146242,27.9218472 292.146242,25.5950266 C292.146242,23.4543517 293.605605,22.0582593 295.338599,22.0582593 C297.345223,22.0582593 298.530955,23.4543517 298.530955,25.5950266 L298.530955,26.0603908 L293.605605,26.0603908 C293.605605,27.2703375 294.517707,28.1079929 295.612229,28.1079929 C296.706752,28.1079929 297.254013,27.549556 297.436433,26.7119005 L298.348535,27.0841918 L298.348535,27.0841918 Z M297.071592,24.9435169 C297.071592,24.0127886 296.433121,23.268206 295.247389,23.268206 C294.152866,23.268206 293.514395,24.1058615 293.423185,24.9435169 L297.071592,24.9435169 L297.071592,24.9435169 Z M302.270573,25.2227353 L304.094777,24.9435169 C304.459618,24.850444 304.642038,24.6642984 304.642038,24.4781528 C304.642038,23.826643 304.185987,23.268206 303.182675,23.268206 C302.270573,23.268206 301.814522,23.826643 301.723312,24.6642984 L300.446369,24.3850799 C300.62879,23.0820604 301.723312,22.244405 303.182675,22.244405 C305.189299,22.244405 305.918981,23.3612789 305.918981,24.6642984 L305.918981,27.9218472 C305.918981,28.4802842 306.010191,28.8525755 306.010191,29.0387211 L304.642038,29.0387211 C304.642038,28.8525755 304.550828,28.573357 304.550828,28.1079929 C304.277197,28.573357 303.638726,29.2248668 302.452994,29.2248668 C301.084841,29.2248668 300.263949,28.2941385 300.263949,27.1772647 C300.263949,26.0603908 301.176051,25.3158082 302.270573,25.2227353 L302.270573,25.2227353 Z M304.550828,26.1534636 L304.550828,25.8742451 L302.544204,26.1534636 C301.996943,26.2465364 301.632102,26.5257549 301.632102,27.1772647 C301.632102,27.6426288 302.088153,28.1079929 302.726624,28.1079929 C303.729936,28.1079929 304.550828,27.6426288 304.550828,26.1534636 L304.550828,26.1534636 Z M309.111338,26.8980462 C309.202548,27.6426288 309.749809,28.1079929 310.661911,28.1079929 C311.391592,28.1079929 311.756433,27.6426288 311.756433,27.1772647 C311.756433,26.8049734 311.482803,26.4326821 310.935541,26.3396092 L309.841019,26.0603908 C308.837707,25.8742451 308.199236,25.1296625 308.199236,24.1989343 C308.199236,23.0820604 309.293758,22.0582593 310.570701,22.0582593 C312.394904,22.0582593 312.942166,23.268206 313.033376,23.826643 L311.938854,24.2920071 C311.847643,23.9197158 311.574013,23.1751332 310.570701,23.1751332 C309.932229,23.1751332 309.476178,23.6404973 309.476178,24.1058615 C309.476178,24.4781528 309.749809,24.850444 310.20586,24.9435169 L311.300382,25.2227353 C312.486115,25.5019538 313.124586,26.2465364 313.124586,27.1772647 C313.124586,28.1079929 312.303694,29.2248668 310.753121,29.2248668 C308.928917,29.2248668 308.199236,28.0149201 308.108025,27.2703375 L309.111338,26.8980462 L309.111338,26.8980462 Z M321.059873,27.0841918 C320.695032,28.2941385 319.60051,29.2248668 318.141146,29.2248668 C316.408153,29.2248668 314.85758,27.9218472 314.85758,25.5950266 C314.85758,23.4543517 316.316943,22.0582593 318.049936,22.0582593 C320.056561,22.0582593 321.242293,23.4543517 321.242293,25.5950266 L321.242293,26.0603908 L316.316943,26.0603908 C316.316943,27.2703375 317.229045,28.1079929 318.323567,28.1079929 C319.418089,28.1079929 319.96535,27.549556 320.147771,26.7119005 L321.059873,27.0841918 L321.059873,27.0841918 Z M319.78293,24.9435169 C319.78293,24.0127886 319.144459,23.268206 317.958726,23.268206 C316.864204,23.268206 316.225732,24.1058615 316.134522,24.9435169 L319.78293,24.9435169 L319.78293,24.9435169 Z" id="Shape" fill="#404040" sketch:type="MSShapeGroup"></path>
            <path d="M376.97172,0.186145648 L464.715924,0.186145648 L464.715924,46.7225577 L376.97172,46.7225577 L376.97172,0.186145648 Z" id="Shape" stroke="#404040" stroke-width="4" fill="#B18BE8" sketch:type="MSShapeGroup"></path>
            <path d="M395.578599,29.0387211 L395.578599,19.1730018 L398.953376,19.1730018 C401.416051,19.1730018 403.605096,20.8483126 403.605096,24.1058615 C403.605096,27.3634103 401.416051,29.0387211 398.953376,29.0387211 L395.578599,29.0387211 L395.578599,29.0387211 Z M398.862166,27.8287744 C400.686369,27.8287744 402.145732,26.6188277 402.145732,24.1058615 C402.145732,21.5928952 400.686369,20.3829485 398.862166,20.3829485 L396.855541,20.3829485 L396.855541,27.8287744 L398.862166,27.8287744 L398.862166,27.8287744 Z M411.631592,27.0841918 C411.266752,28.2941385 410.172229,29.2248668 408.712866,29.2248668 C406.979873,29.2248668 405.429299,27.9218472 405.429299,25.5950266 C405.429299,23.4543517 406.888662,22.0582593 408.530446,22.0582593 C410.53707,22.0582593 411.722803,23.4543517 411.722803,25.5950266 L411.722803,26.0603908 L406.797452,26.0603908 C406.797452,27.2703375 407.709554,28.1079929 408.804076,28.1079929 C409.898599,28.1079929 410.44586,27.549556 410.62828,26.7119005 L411.631592,27.0841918 L411.631592,27.0841918 Z M410.35465,24.9435169 C410.35465,24.0127886 409.716178,23.268206 408.530446,23.268206 C407.435924,23.268206 406.797452,24.1058615 406.706242,24.9435169 L410.35465,24.9435169 L410.35465,24.9435169 Z M417.195414,29.0387211 L415.918471,29.0387211 L413.182166,22.3374778 L414.641529,22.3374778 L416.556943,27.549556 L418.472357,22.3374778 L419.84051,22.3374778 L417.195414,29.0387211 L417.195414,29.0387211 Z M426.954904,27.0841918 C426.590064,28.2941385 425.495541,29.2248668 424.036178,29.2248668 C422.303185,29.2248668 420.752611,27.9218472 420.752611,25.5950266 C420.752611,23.4543517 422.211975,22.0582593 423.944968,22.0582593 C425.951592,22.0582593 427.137325,23.4543517 427.137325,25.5950266 L427.137325,26.0603908 L422.211975,26.0603908 C422.211975,27.2703375 423.124076,28.1079929 424.218599,28.1079929 C425.313121,28.1079929 425.860382,27.549556 426.042803,26.7119005 L426.954904,27.0841918 L426.954904,27.0841918 Z M425.677962,24.9435169 C425.677962,24.0127886 425.03949,23.268206 423.853758,23.268206 C422.759236,23.268206 422.120764,24.1058615 422.029554,24.9435169 L425.677962,24.9435169 L425.677962,24.9435169 Z M429.326369,29.0387211 L429.326369,18.8937833 L430.603312,18.8937833 L430.603312,29.0387211 L429.326369,29.0387211 L429.326369,29.0387211 Z M439.724331,25.6880995 C439.724331,27.7357016 438.356178,29.2248668 436.349554,29.2248668 C434.34293,29.2248668 432.974777,27.7357016 432.974777,25.6880995 C432.974777,23.6404973 434.34293,22.1513321 436.349554,22.1513321 C438.264968,22.0582593 439.724331,23.6404973 439.724331,25.6880995 L439.724331,25.6880995 Z M438.356178,25.6880995 C438.356178,24.1058615 437.444076,23.268206 436.349554,23.268206 C435.255032,23.268206 434.34293,24.1058615 434.34293,25.6880995 C434.34293,27.2703375 435.255032,28.1079929 436.349554,28.1079929 C437.444076,28.1079929 438.356178,27.1772647 438.356178,25.6880995 L438.356178,25.6880995 Z M442.004586,31.6447602 L442.004586,22.3374778 L443.281529,22.3374778 L443.281529,23.3612789 C443.646369,22.7097691 444.376051,22.1513321 445.470573,22.1513321 C447.477197,22.1513321 448.48051,23.7335702 448.48051,25.6880995 C448.48051,27.6426288 447.385987,29.2248668 445.379363,29.2248668 C444.376051,29.2248668 443.555159,28.7595027 443.281529,28.1079929 L443.281529,31.6447602 L442.004586,31.6447602 L442.004586,31.6447602 Z M445.196943,23.3612789 C444.01121,23.3612789 443.281529,24.3850799 443.281529,25.6880995 C443.281529,27.0841918 444.10242,28.1079929 445.196943,28.1079929 C446.382675,28.1079929 447.112357,27.0841918 447.112357,25.6880995 C447.203567,24.2920071 446.473885,23.3612789 445.196943,23.3612789 L445.196943,23.3612789 Z" id="Shape" fill="#404040" sketch:type="MSShapeGroup"></path>
            <path d="M125.687643,0.186145648 L213.431847,0.186145648 L213.431847,46.7225577 L125.687643,46.7225577 L125.687643,0.186145648 Z" id="Shape" stroke="#404040" stroke-width="4" fill="#FC8363" sketch:type="MSShapeGroup"></path>
            <path d="M0,0.186145648 L87.7442038,0.186145648 L87.7442038,46.7225577 L0,46.7225577 L0,0.186145648 Z" id="Shape" stroke="#404040" stroke-width="4" fill="#B3E3FF" sketch:type="MSShapeGroup"></path>
            <path d="M31.6499363,29.0387211 L31.6499363,21.3136767 L28.3663694,29.0387211 L27.1806369,29.0387211 L23.8970701,21.3136767 L23.8970701,29.0387211 L22.5289172,29.0387211 L22.5289172,19.1730018 L24.353121,19.1730018 L27.8191083,27.2703375 L31.2850955,19.1730018 L33.1092994,19.1730018 L33.1092994,29.0387211 L31.6499363,29.0387211 L31.6499363,29.0387211 Z M37.4873885,25.2227353 L39.2203822,24.9435169 C39.5852229,24.850444 39.7676433,24.6642984 39.7676433,24.4781528 C39.7676433,23.826643 39.3115924,23.268206 38.3082803,23.268206 C37.3961783,23.268206 36.9401274,23.826643 36.8489172,24.6642984 L35.6631847,24.3850799 C35.7543949,23.0820604 36.9401274,22.244405 38.3994904,22.244405 C40.4061146,22.244405 41.1357962,23.3612789 41.1357962,24.6642984 L41.1357962,27.9218472 C41.1357962,28.4802842 41.2270064,28.8525755 41.2270064,29.0387211 L39.9500637,29.0387211 C39.9500637,28.8525755 39.8588535,28.573357 39.8588535,28.1079929 C39.5852229,28.573357 38.9467516,29.2248668 37.7610191,29.2248668 C36.3928662,29.2248668 35.5719745,28.2941385 35.5719745,27.1772647 C35.4807643,26.0603908 36.3928662,25.3158082 37.4873885,25.2227353 L37.4873885,25.2227353 Z M39.7676433,26.1534636 L39.7676433,25.8742451 L37.7610191,26.1534636 C37.213758,26.2465364 36.8489172,26.5257549 36.8489172,27.1772647 C36.8489172,27.6426288 37.213758,28.1079929 37.9434395,28.1079929 C38.9467516,28.1079929 39.7676433,27.6426288 39.7676433,26.1534636 L39.7676433,26.1534636 Z M44.3281529,26.8980462 C44.4193631,27.6426288 44.9666242,28.1079929 45.8787261,28.1079929 C46.6084076,28.1079929 46.9732484,27.6426288 46.9732484,27.1772647 C46.9732484,26.8049734 46.6996178,26.4326821 46.1523567,26.3396092 L45.0578344,26.0603908 C44.0545223,25.8742451 43.416051,25.1296625 43.416051,24.1989343 C43.416051,23.0820604 44.5105732,22.0582593 45.7875159,22.0582593 C47.6117197,22.0582593 48.1589809,23.268206 48.2501911,23.826643 L47.1556688,24.2920071 C47.0644586,23.9197158 46.790828,23.1751332 45.7875159,23.1751332 C45.1490446,23.1751332 44.6929936,23.6404973 44.6929936,24.1058615 C44.6929936,24.4781528 44.9666242,24.850444 45.4226752,24.9435169 L46.5171975,25.2227353 C47.7029299,25.5019538 48.3414013,26.2465364 48.3414013,27.1772647 C48.3414013,28.1079929 47.5205096,29.2248668 45.9699363,29.2248668 C44.1457325,29.2248668 43.416051,28.0149201 43.3248408,27.2703375 L44.3281529,26.8980462 L44.3281529,26.8980462 Z M52.3546497,22.3374778 L53.8140127,22.3374778 L53.8140127,23.5474245 L52.3546497,23.5474245 L52.3546497,26.991119 C52.3546497,27.6426288 52.6282803,27.9218472 53.2667516,27.9218472 C53.449172,27.9218472 53.6315924,27.9218472 53.8140127,27.8287744 L53.8140127,28.9456483 C53.7228025,28.9456483 53.3579618,29.0387211 52.9019108,29.0387211 C51.8073885,29.0387211 51.077707,28.2941385 51.077707,27.0841918 L51.077707,23.3612789 L49.8007643,23.3612789 L49.8007643,22.3374778 L50.1656051,22.3374778 C50.8952866,22.3374778 51.1689172,21.8721137 51.1689172,21.3136767 L51.1689172,20.1968028 L52.3546497,20.1968028 L52.3546497,22.3374778 L52.3546497,22.3374778 Z M61.8405096,27.0841918 C61.4756688,28.2941385 60.3811465,29.2248668 58.9217834,29.2248668 C57.1887898,29.2248668 55.6382166,27.9218472 55.6382166,25.5950266 C55.6382166,23.4543517 57.0975796,22.0582593 58.8305732,22.0582593 C60.8371975,22.0582593 62.0229299,23.4543517 62.0229299,25.5950266 L62.0229299,25.9673179 L57.0975796,25.9673179 C57.0975796,27.1772647 58.0096815,28.0149201 59.1042038,28.0149201 C60.1987261,28.0149201 60.7459873,27.4564831 60.9284076,26.6188277 L61.8405096,27.0841918 L61.8405096,27.0841918 Z M60.5635669,24.9435169 C60.5635669,24.0127886 59.9250955,23.268206 58.7393631,23.268206 C57.6448408,23.268206 57.0063694,24.1058615 56.9151592,24.9435169 L60.5635669,24.9435169 L60.5635669,24.9435169 Z M67.8603822,23.6404973 L67.313121,23.6404973 C66.2185987,23.6404973 65.4889172,24.1989343 65.4889172,25.6880995 L65.4889172,29.0387211 L64.2119745,29.0387211 L64.2119745,22.3374778 L65.4889172,22.3374778 L65.4889172,23.5474245 C65.9449682,22.5236234 66.7658599,22.244405 67.4955414,22.244405 L67.9515924,22.244405 L67.9515924,23.6404973 L67.8603822,23.6404973 Z" id="Shape" fill="#404040" sketch:type="MSShapeGroup"></path>
            <path d="M502.659363,0.186145648 L590.403567,0.186145648 L590.403567,46.7225577 L502.659363,46.7225577 L502.659363,0.186145648 Z" id="Shape" stroke="#404040" stroke-width="4" fill="#4ED1A1" sketch:type="MSShapeGroup"></path>
            <path d="M523.181656,28.573357 L523.181656,18.7076377 L529.110318,18.7076377 L529.110318,20.0106572 L524.549809,20.0106572 L524.549809,23.1751332 L528.654268,23.1751332 L528.654268,24.4781528 L524.549809,24.4781528 L524.549809,28.6664298 L523.181656,28.6664298 L523.181656,28.573357 Z M536.589554,26.6188277 C536.224713,27.8287744 535.130191,28.7595027 533.670828,28.7595027 C531.937834,28.7595027 530.387261,27.4564831 530.387261,25.1296625 C530.387261,22.9889876 531.846624,21.5928952 533.579618,21.5928952 C535.586242,21.5928952 536.771975,22.9889876 536.771975,25.1296625 L536.771975,25.5950266 L531.846624,25.5950266 C531.846624,26.8049734 532.758726,27.6426288 533.853248,27.6426288 C534.947771,27.6426288 535.495032,27.0841918 535.677452,26.2465364 L536.589554,26.6188277 L536.589554,26.6188277 Z M535.221401,24.4781528 C535.221401,23.5474245 534.58293,22.8028419 533.397197,22.8028419 C532.302675,22.8028419 531.664204,23.6404973 531.572994,24.4781528 L535.221401,24.4781528 L535.221401,24.4781528 Z M540.511592,24.7573712 L542.335796,24.4781528 C542.700637,24.3850799 542.883057,24.1989343 542.883057,24.0127886 C542.883057,23.3612789 542.427006,22.8028419 541.423694,22.8028419 C540.511592,22.8028419 540.055541,23.3612789 539.964331,24.1989343 L538.778599,23.9197158 C538.961019,22.6166963 540.055541,21.7790409 541.514904,21.7790409 C543.521529,21.7790409 544.25121,22.8959147 544.25121,24.1989343 L544.25121,27.549556 C544.25121,28.1079929 544.34242,28.4802842 544.34242,28.6664298 L543.065478,28.6664298 C543.065478,28.4802842 542.974268,28.2010657 542.974268,27.7357016 C542.700637,28.2010657 542.062166,28.8525755 540.876433,28.8525755 C539.50828,28.8525755 538.687389,27.9218472 538.687389,26.8049734 C538.504968,25.5950266 539.32586,24.850444 540.511592,24.7573712 L540.511592,24.7573712 Z M542.791847,25.6880995 L542.791847,25.408881 L540.785223,25.6880995 C540.237962,25.7811723 539.873121,26.0603908 539.873121,26.7119005 C539.873121,27.1772647 540.329172,27.6426288 540.967643,27.6426288 C541.970955,27.6426288 542.791847,27.1772647 542.791847,25.6880995 L542.791847,25.6880995 Z M548.446879,21.8721137 L549.906242,21.8721137 L549.906242,23.0820604 L548.446879,23.0820604 L548.446879,26.6188277 C548.446879,27.2703375 548.72051,27.549556 549.358981,27.549556 C549.541401,27.549556 549.723822,27.549556 549.906242,27.4564831 L549.906242,28.573357 C549.815032,28.573357 549.450191,28.6664298 548.99414,28.6664298 C547.899618,28.6664298 547.169936,27.9218472 547.169936,26.7119005 L547.169936,22.9889876 L545.892994,22.9889876 L545.892994,21.7790409 L546.257834,21.7790409 C546.987516,21.7790409 547.261146,21.3136767 547.261146,20.7552398 L547.261146,19.6383659 L548.446879,19.6383659 L548.446879,21.8721137 L548.446879,21.8721137 Z M554.649172,28.7595027 C553.098599,28.7595027 552.186497,27.549556 552.186497,26.0603908 L552.186497,21.8721137 L553.463439,21.8721137 L553.463439,25.8742451 C553.463439,26.8049734 553.91949,27.6426288 554.922803,27.6426288 C555.926115,27.6426288 556.473376,26.8980462 556.473376,25.9673179 L556.473376,21.9651865 L557.750318,21.9651865 L557.750318,27.4564831 C557.750318,28.0149201 557.750318,28.4802842 557.841529,28.6664298 L556.655796,28.6664298 C556.655796,28.4802842 556.564586,28.1079929 556.564586,27.8287744 C556.290955,28.4802842 555.470064,28.7595027 554.649172,28.7595027 L554.649172,28.7595027 Z M564.408662,23.1751332 L563.861401,23.1751332 C562.766879,23.1751332 562.037197,23.7335702 562.037197,25.2227353 L562.037197,28.573357 L560.760255,28.573357 L560.760255,21.8721137 L562.037197,21.8721137 L562.037197,23.0820604 C562.493248,22.0582593 563.31414,21.7790409 564.043822,21.7790409 L564.499873,21.7790409 L564.499873,23.1751332 L564.408662,23.1751332 Z M572.070318,26.6188277 C571.705478,27.8287744 570.610955,28.7595027 569.151592,28.7595027 C567.418599,28.7595027 565.868025,27.4564831 565.868025,25.1296625 C565.868025,22.9889876 567.327389,21.5928952 569.060382,21.5928952 C571.067006,21.5928952 572.252739,22.9889876 572.252739,25.1296625 L572.252739,25.5950266 L567.327389,25.5950266 C567.327389,26.8049734 568.23949,27.6426288 569.334013,27.6426288 C570.428535,27.6426288 570.975796,27.0841918 571.158217,26.2465364 L572.070318,26.6188277 L572.070318,26.6188277 Z M570.793376,24.4781528 C570.793376,23.5474245 570.154904,22.8028419 568.969172,22.8028419 C567.87465,22.8028419 567.236178,23.6404973 567.144968,24.4781528 L570.793376,24.4781528 L570.793376,24.4781528 Z" id="Shape" fill="#404040" sketch:type="MSShapeGroup"></path>
            <path d="M628.255796,0.186145648 L716,0.186145648 L716,46.7225577 L628.255796,46.7225577 L628.255796,0.186145648 Z" id="Shape" stroke="#404040" stroke-width="4" fill="#4ED1A1" sketch:type="MSShapeGroup"></path>
            <path d="M648.869299,28.573357 L648.869299,18.7076377 L654.797962,18.7076377 L654.797962,20.0106572 L650.237452,20.0106572 L650.237452,23.1751332 L654.341911,23.1751332 L654.341911,24.4781528 L650.237452,24.4781528 L650.237452,28.6664298 L648.869299,28.6664298 L648.869299,28.573357 Z M662.185987,26.6188277 C661.821146,27.8287744 660.726624,28.7595027 659.267261,28.7595027 C657.534268,28.7595027 655.983694,27.4564831 655.983694,25.1296625 C655.983694,22.9889876 657.443057,21.5928952 659.084841,21.5928952 C661.091465,21.5928952 662.277197,22.9889876 662.277197,25.1296625 L662.277197,25.5950266 L657.351847,25.5950266 C657.351847,26.8049734 658.263949,27.6426288 659.358471,27.6426288 C660.452994,27.6426288 661.000255,27.0841918 661.182675,26.2465364 L662.185987,26.6188277 L662.185987,26.6188277 Z M660.909045,24.4781528 C660.909045,23.5474245 660.270573,22.8028419 659.084841,22.8028419 C657.990318,22.8028419 657.351847,23.6404973 657.260637,24.4781528 L660.909045,24.4781528 L660.909045,24.4781528 Z M666.199236,24.7573712 L667.932229,24.4781528 C668.29707,24.3850799 668.47949,24.1989343 668.47949,24.0127886 C668.47949,23.3612789 668.023439,22.8028419 667.020127,22.8028419 C666.108025,22.8028419 665.651975,23.3612789 665.560764,24.1989343 L664.283822,23.9197158 C664.466242,22.6166963 665.560764,21.7790409 667.020127,21.7790409 C669.026752,21.7790409 669.756433,22.8959147 669.756433,24.1989343 L669.756433,27.549556 C669.756433,28.1079929 669.847643,28.4802842 669.847643,28.6664298 L668.570701,28.6664298 C668.570701,28.4802842 668.47949,28.2010657 668.47949,27.7357016 C668.20586,28.2010657 667.567389,28.8525755 666.381656,28.8525755 C665.013503,28.8525755 664.192611,27.9218472 664.192611,26.8049734 C664.192611,25.5950266 665.013503,24.850444 666.199236,24.7573712 L666.199236,24.7573712 Z M668.47949,25.6880995 L668.47949,25.408881 L666.472866,25.6880995 C665.925605,25.7811723 665.560764,26.0603908 665.560764,26.7119005 C665.560764,27.1772647 665.925605,27.6426288 666.655287,27.6426288 C667.567389,27.6426288 668.47949,27.1772647 668.47949,25.6880995 L668.47949,25.6880995 Z M674.134522,21.8721137 L675.593885,21.8721137 L675.593885,23.0820604 L674.134522,23.0820604 L674.134522,26.6188277 C674.134522,27.2703375 674.408153,27.549556 675.046624,27.549556 C675.229045,27.549556 675.411465,27.549556 675.593885,27.4564831 L675.593885,28.573357 C675.502675,28.573357 675.137834,28.6664298 674.681783,28.6664298 C673.587261,28.6664298 672.85758,27.9218472 672.85758,26.7119005 L672.85758,22.9889876 L671.580637,22.9889876 L671.580637,21.7790409 L671.945478,21.7790409 C672.675159,21.7790409 672.94879,21.3136767 672.94879,20.7552398 L672.94879,19.6383659 L674.134522,19.6383659 L674.134522,21.8721137 L674.134522,21.8721137 Z M680.336815,28.7595027 C678.786242,28.7595027 677.87414,27.549556 677.87414,26.0603908 L677.87414,21.8721137 L679.151083,21.8721137 L679.151083,25.8742451 C679.151083,26.8049734 679.607134,27.6426288 680.610446,27.6426288 C681.613758,27.6426288 682.161019,26.8980462 682.161019,25.9673179 L682.161019,21.9651865 L683.437962,21.9651865 L683.437962,27.4564831 C683.437962,28.0149201 683.437962,28.4802842 683.529172,28.6664298 L682.343439,28.6664298 C682.343439,28.4802842 682.252229,28.1079929 682.252229,27.8287744 C681.978599,28.4802842 681.157707,28.7595027 680.336815,28.7595027 L680.336815,28.7595027 Z M690.005096,23.1751332 L689.457834,23.1751332 C688.363312,23.1751332 687.633631,23.7335702 687.633631,25.2227353 L687.633631,28.573357 L686.356688,28.573357 L686.356688,21.8721137 L687.633631,21.8721137 L687.633631,23.0820604 C688.089682,22.0582593 688.910573,21.7790409 689.640255,21.7790409 L690.096306,21.7790409 L690.096306,23.1751332 L690.005096,23.1751332 Z M697.757962,26.6188277 C697.393121,27.8287744 696.298599,28.7595027 694.839236,28.7595027 C693.106242,28.7595027 691.555669,27.4564831 691.555669,25.1296625 C691.555669,22.9889876 693.015032,21.5928952 694.748025,21.5928952 C696.75465,21.5928952 697.940382,22.9889876 697.940382,25.1296625 L697.940382,25.5950266 L693.015032,25.5950266 C693.015032,26.8049734 693.927134,27.6426288 695.021656,27.6426288 C696.116178,27.6426288 696.663439,27.0841918 696.84586,26.2465364 L697.757962,26.6188277 L697.757962,26.6188277 Z M696.481019,24.4781528 C696.481019,23.5474245 695.842548,22.8028419 694.656815,22.8028419 C693.562293,22.8028419 692.923822,23.6404973 692.832611,24.4781528 L696.481019,24.4781528 L696.481019,24.4781528 Z" id="Shape" fill="#404040" sketch:type="MSShapeGroup"></path>
            <path d="M70.1406369,251.296625 L70.1406369,366.14849 C70.1406369,381.97087 82.7276433,394.81492 98.2333758,394.81492 L185.521529,394.81492" id="Shape" stroke="#404040" stroke-width="4" sketch:type="MSShapeGroup"></path>
            <ellipse id="Oval" stroke="#404040" stroke-width="4" fill="#B18BE8" sketch:type="MSShapeGroup" cx="171.201529" cy="394.349556" rx="14.32" ry="14.6124334"></ellipse>
            <ellipse id="Oval" stroke="#404040" stroke-width="4" fill="#B18BE8" sketch:type="MSShapeGroup" cx="128.423949" cy="394.442629" rx="14.4112102" ry="14.7055062"></ellipse>
            <ellipse id="Oval" stroke="#404040" stroke-width="4" fill="#FC8363" sketch:type="MSShapeGroup" cx="128.423949" cy="279.963055" rx="14.4112102" ry="14.7055062"></ellipse>
            <path d="M482.04586,366.14849 C482.04586,381.97087 469.458854,394.81492 453.953121,394.81492 M637.285605,366.14849 C637.285605,381.97087 649.872611,394.81492 665.378344,394.81492 L686.356688,394.81492 M510.86828,337.48206 L510.047389,337.48206 C494.541656,337.48206 481.95465,350.32611 481.95465,366.14849 M637.285605,366.14849 C637.285605,350.32611 624.698599,337.48206 609.192866,337.48206 L510.86828,337.48206" id="Shape" stroke="#404040" stroke-width="4" sketch:type="MSShapeGroup"></path>
            <ellipse id="Oval" stroke="#404040" stroke-width="4" fill="#4CD3D6" sketch:type="MSShapeGroup" cx="580.826497" cy="337.668206" rx="14.4112102" ry="14.7055062"></ellipse>
            <ellipse id="Oval" stroke="#404040" stroke-width="4" fill="#4CD3D6" sketch:type="MSShapeGroup" cx="537.957707" cy="337.668206" rx="14.4112102" ry="14.7055062"></ellipse>
            <path d="M128.332739,409.427353 L128.332739,494.588988 M142.743949,279.869982 L185.795159,279.869982 M581.008917,322.869627 L581.008917,237.707993" id="Shape" stroke="#404040" stroke-width="4" sketch:type="MSShapeGroup"></path>
        </g>
        <text id="Fixbug" sketch:type="MSTextLayer" font-family="Heiti SC" font-size="16" font-weight="bold" fill="#2D3838">
            <tspan x="153" y="41">Fixbug</tspan>
        </text>
    </g>
</svg>